<svg version="1.1" id="Layer_1"
  xmlns="http://www.w3.org/2000/svg"
  xmlns:xlink="http://www.w3.org/1999/xlink" x="0px" y="0px" viewBox="0 0 300 300" style="enable-background:new 0 0 300 300;" xml:space="preserve">
  <style type="text/css">
	.st0{fill:none;}
  </style>
  <line class="st0" x1="103" y1="47" x2="110" y2="66"/>
  <g>
    <path d="M88.82,144h18.46v64.03H88.82V144z M123.57,158.21l19.15-3.55l29.5,53.37h-22.16L123.57,158.21z M96.47,144h38.69
		c2.57,0,4.85-0.63,6.84-1.89c1.98-1.26,3.52-3.05,4.6-5.37c1.08-2.32,1.65-5.02,1.7-8.11c0-3.04-0.54-5.72-1.62-8.03
		c-1.08-2.32-2.61-4.11-4.6-5.37c-1.98-1.26-4.29-1.89-6.91-1.89H96.47V95.65h39.24c6.33,0,11.9,1.36,16.68,4.09
		c4.79,2.73,8.51,6.59,11.16,11.59c2.65,5,3.98,10.76,3.98,17.3c0,6.59-1.33,12.38-3.98,17.38c-2.65,5-6.38,8.86-11.2,11.59
		c-4.82,2.73-10.36,4.09-16.64,4.09H96.47V144z M96.47,95.65v17.69H0V95.65H96.47z M210,95.4V113h-19V95.4H210z"/>
    <path d="M211,207.99h-18.85V121H211V207.99z"/>
  </g>
  <rect x="210" y="190.36" width="90" height="17.69"/>
  <rect x="0" y="-0.02" width="300" height="17.69"/>
  <rect x="0.17" y="282.31" width="299.59" height="17.69"/>
  <rect x="0" y="9" width="17.69" height="69"/>
  <rect x="282.31" y="0.03" width="17.69" height="192.97"/>
  <rect x="282.31" y="226" width="17.69" height="74"/>
  <rect x="0" y="108" width="17.69" height="186.32"/>
</svg>